<?xml version="1.0" encoding="UTF-8" standalone="no"?>
<svg xmlns:svg="http://www.w3.org/2000/svg" xmlns="http://www.w3.org/2000/svg" width="35.433071" height="35.433071" id="svg2" version="1.1"><g id="layer3"><path style="fill-opacity:1;fill-rule:evenodd;stroke:none" d="m 4,5.3125001 c -0.2453637,0 -0.46875,0.1921 -0.46875,0.4375 l 0,2.65625 c 0,0.2453 0.2233863,0.4375 0.46875,0.4375 l 27.4375,0 c 0.245364,0 0.4375,-0.1922 0.4375,-0.4375 l 0,-2.65625 c 0,-0.2454 -0.192136,-0.4375 -0.4375,-0.4375 z M 4,15.9375 C 3.7546488,15.93738 3.53125,16.1296 3.53125,16.375 l 0,2.65625 C 3.53125,19.27665 3.7546488,19.5 4,19.5 l 11.501969,0.0074 0,-3.5625 z m 0,10.625 c -0.2453723,-2.2e-4 -0.46875,0.22335 -0.46875,0.46875 l 0,2.65625 c 0,0.2454 0.2233776,0.4375 0.46875,0.4375 l 13.766978,0.0123 -3.59375,-3.5625 z" id="rect3010-5"></path><path style="fill-opacity:1;stroke:none" d="m 22.588583,12.401575 4.429134,0 0,10.629921 4.872047,0 -7.086614,7.086615 -7.086615,-7.086615 4.872048,0 z" id="path3874-2"></path></g></svg>