<?xml version="1.0" encoding="UTF-8" standalone="no"?>
<svg xmlns:svg="http://www.w3.org/2000/svg" xmlns="http://www.w3.org/2000/svg" width="35.433071" height="35.433071" id="svg2" version="1.1"><g id="layer2"><path style="fill-opacity:1;stroke:none" d="M 20.1875,3.5312501 C 13.721152,3.5312501 8.5,8.7815001 8.5,15.25 c 0,2.2035 0.6295952,4.2412 1.6875,6 L 3.53125,27.9375 7.5,31.90625 14.1875,25.25 c 0.687393,0.412383 1.420048,0.760679 2.1875,1.03125 l 0,-3.8125 C 13.774085,21.10064 12,18.406243 12,15.25 c 0,-4.5402 3.647292,-8.2499999 8.1875,-8.2499999 4.540208,0 8.21875,3.7097999 8.21875,8.2499999 0,3.206009 -1.8212,5.935274 -4.5,7.28125 l 0,3.8125 c 4.651239,-1.549066 8,-5.922532 8,-11.09375 0,-6.4684999 -5.252365,-11.7187499 -11.71875,-11.7187499 z" id="path3772-9"></path><path style="fill-opacity:1;stroke:none" d="m 18.405466,19.1259 3.532466,0 0,8.48 3.885712,0 -5.651945,5.6531 -5.651946,-5.6531 3.885713,0 z" id="path3874-1"></path></g></svg>