<?xml version="1.0" encoding="UTF-8" standalone="no"?>
<svg xmlns:svg="http://www.w3.org/2000/svg" xmlns="http://www.w3.org/2000/svg" width="35.433071" height="35.433071" id="svg2" version="1.1"><g id="nestor-icon" transform="translate(0,-1016.9291)"><path style="fill-opacity:1;stroke:none" d="M 20.1875 3.53125 C 13.721152 3.53125 8.5 8.7815 8.5 15.25 C 8.5 17.4535 9.1295952 19.4912 10.1875 21.25 L 3.53125 27.9375 L 7.5 31.90625 L 14.1875 25.25 C 14.874893 25.662383 15.607548 26.010679 16.375 26.28125 L 16.375 22.46875 C 13.774085 21.10064 12 18.406243 12 15.25 C 12 10.7098 15.647292 7 20.1875 7 C 24.727708 7 28.40625 10.7098 28.40625 15.25 C 28.40625 18.456009 26.58505 21.185274 23.90625 22.53125 L 23.90625 26.34375 C 28.557489 24.794684 31.90625 20.421218 31.90625 15.25 C 31.90625 8.7815 26.653885 3.53125 20.1875 3.53125 z " transform="translate(0,1016.9291)" id="path3772"></path><path style="fill-opacity:1;stroke:none" d="m 18.405466,1036.055 3.532466,0 0,8.48 3.885712,0 -5.651945,5.6531 -5.651946,-5.6531 3.885713,0 z" id="path3874"></path></g></svg>